<?xml version="1.0" encoding="UTF-8" standalone="no"?>
<!-- Created with Inkscape (http://www.inkscape.org/) -->

<svg
        width="10in"
        height="10in"
        viewBox="0 0 253.99998 253.99997"
        version="1.1"
        id="svg8"
        inkscape:version="1.3 (0e150ed6c4, 2023-07-21)"
        sodipodi:docname="icon.svg"
        inkscape:export-filename="../../IdeaProjects/AlchitryLabsV2/icons/icon-16.png"
        inkscape:export-xdpi="1.6"
        inkscape:export-ydpi="1.6"
        xmlns:inkscape="http://www.inkscape.org/namespaces/inkscape"
        xmlns:sodipodi="http://sodipodi.sourceforge.net/DTD/sodipodi-0.dtd"
        xmlns="http://www.w3.org/2000/svg"
        xmlns:rdf="http://www.w3.org/1999/02/22-rdf-syntax-ns#"
        xmlns:cc="http://creativecommons.org/ns#"
        xmlns:dc="http://purl.org/dc/elements/1.1/">
    <sodipodi:namedview
            id="base"
            pagecolor="#343434"
            bordercolor="#666666"
            borderopacity="1.0"
            inkscape:pageopacity="0"
            inkscape:pageshadow="2"
            inkscape:zoom="0.57348764"
            inkscape:cx="630.3536"
            inkscape:cy="353.9745"
            inkscape:document-units="px"
            inkscape:current-layer="layer7"
            showgrid="true"
            inkscape:window-width="1920"
            inkscape:window-height="2091"
            inkscape:window-x="1289"
            inkscape:window-y="19"
            inkscape:window-maximized="0"
            showguides="false"
            inkscape:snap-center="true"
            inkscape:snap-object-midpoints="true"
            units="in"
            inkscape:pagecheckerboard="true"
            fit-margin-left="0.5"
            fit-margin-top="0.5"
            fit-margin-bottom="0.5"
            fit-margin-right="0.5"
            inkscape:snap-others="false"
            inkscape:object-nodes="false"
            inkscape:showpageshadow="2"
            inkscape:deskcolor="#d1d1d1">
        <inkscape:grid
                id="grid4489"
                type="xygrid"
                originx="10.941917"
                originy="11.779644"
                visible="true"
                spacingy="1"
                spacingx="1"
                units="in"/>
    </sodipodi:namedview>
    <defs
            id="defs2"/>
    <metadata
            id="metadata5">
        <rdf:RDF>
            <cc:Work
                    rdf:about="">
                <dc:format>image/svg+xml</dc:format>
                <dc:type
                        rdf:resource="http://purl.org/dc/dcmitype/StillImage"/>
            </cc:Work>
        </rdf:RDF>
    </metadata>
    <g
            inkscape:groupmode="layer"
            id="layer2"
            inkscape:label="Circle">
        <circle
                style="color:#000000;clip-rule:nonzero;display:inline;overflow:visible;visibility:visible;opacity:1;isolation:auto;mix-blend-mode:normal;color-interpolation:sRGB;color-interpolation-filters:linearRGB;solid-color:#000000;solid-opacity:1;fill:#343434;fill-opacity:1;fill-rule:nonzero;stroke:none;stroke-width:0.44999996;stroke-linecap:round;stroke-linejoin:miter;stroke-miterlimit:4;stroke-dasharray:none;stroke-dashoffset:0;stroke-opacity:1;color-rendering:auto;image-rendering:auto;shape-rendering:auto;text-rendering:auto;enable-background:accumulate"
                id="path4692"
                cx="126.99998"
                cy="126.99999"
                r="124.35416"/>
    </g>
    <g
            inkscape:groupmode="layer"
            id="layer7"
            inkscape:label="Beaker"
            style="display:inline"
            transform="translate(11.084757,229.64073)">
        <g
                id="g2212"
                transform="matrix(18.880626,0,0,18.880626,12.747358,-220.49457)">
            <g
                    transform="matrix(0.07881215,0,0,-0.07881215,4.178485,8.5637065)"
                    id="g1077">
                <path
                        inkscape:connector-curvature="0"
                        id="path1079"
                        style="fill:#faac1f;fill-opacity:1;fill-rule:nonzero;stroke:none"
                        d="m 0,0 c -1.479,0 -2.678,-1.199 -2.678,-2.678 0,-1.478 1.199,-2.677 2.678,-2.677 1.479,0 2.678,1.199 2.678,2.677 0,1.479 -1.199,2.678 -2.678,2.678"/>
            </g>
            <g
                    style="fill:#67b319;fill-opacity:1"
                    transform="matrix(0.07881215,0,0,-0.07881215,4.4367759,9.2327585)"
                    id="g1081">
                <path
                        inkscape:connector-curvature="0"
                        id="path1083"
                        style="fill:#faac1f;fill-opacity:1;fill-rule:nonzero;stroke:none"
                        d="m 0,0 c -0.969,-0.549 -2.086,-0.866 -3.277,-0.866 -3.683,0 -6.679,2.996 -6.679,6.678 0,3.681 2.996,6.677 6.679,6.677 3.682,0 6.678,-2.996 6.678,-6.677 0,-1.037 -0.244,-2.014 -0.667,-2.89 l 5.146,-5.146 v -5.912 h 3.157 v 27.465 c -2.709,0.853 -4.679,3.386 -4.679,6.371 0,3.684 2.996,6.68 6.679,6.68 3.682,0 6.678,-2.996 6.678,-6.68 0,-2.985 -1.97,-5.518 -4.678,-6.371 v -27.465 h 3.374 v 11.973 l 5.241,5.243 c -0.484,0.924 -0.762,1.973 -0.762,3.087 0,3.684 2.996,6.68 6.679,6.68 3.682,0 6.678,-2.996 6.678,-6.68 0,-3.682 -2.996,-6.678 -6.678,-6.678 -1.114,0 -2.163,0.279 -3.088,0.763 l -4.07,-4.071 v -10.317 h 19.684 l 6.57,16.631 -26.128,22.353 v 25.389 h -19 v -25.389 l -26.129,-22.353 6.57,-16.631 h 19.902 v 4.256 z"/>
            </g>
            <g
                    transform="matrix(0.07881215,0,0,-0.07881215,6.7671646,8.4848945)"
                    id="g1085">
                <path
                        inkscape:connector-curvature="0"
                        id="path1087"
                        style="fill:#faac1f;fill-opacity:1;fill-rule:nonzero;stroke:none"
                        d="m 0,0 c 1.479,0 2.678,1.199 2.678,2.678 0,1.48 -1.199,2.679 -2.678,2.679 -1.48,0 -2.679,-1.199 -2.679,-2.679 0,-1.479 1.199,-2.678 2.679,-2.678"/>
            </g>
            <g
                    transform="matrix(0.07881215,0,0,-0.07881215,5.4581029,7.4176988)"
                    id="g1089">
                <path
                        inkscape:connector-curvature="0"
                        id="path1091"
                        style="fill:#faac1f;fill-opacity:1;fill-rule:nonzero;stroke:none"
                        d="m 0,0 h 0.155 c 1.443,0.042 2.601,1.216 2.601,2.67 0,1.48 -1.199,2.68 -2.678,2.68 -1.48,0 -2.679,-1.2 -2.679,-2.68 0,-1.454 1.158,-2.628 2.601,-2.67"/>
            </g>
            <g
                    transform="matrix(0.07881215,0,0,-0.07881215,4.830955,2.8665256)"
                    id="g1093">
                <path
                        inkscape:connector-curvature="0"
                        id="path1095"
                        style="fill:#faac1f;fill-opacity:1;fill-rule:nonzero;stroke:none;stroke-width:1.098189"
                        d="m -0.83710094,-0.8407434 c 1.00813753,0 1.82958292,-0.8214454 1.82958292,-1.8317793 0,-1.0092357 -0.82144539,-1.8295829 -1.82958292,-1.8295829 -1.00813756,0 -1.82958296,0.8203472 -1.82958296,1.8295829 0,1.0103339 0.8214454,1.8317793 1.82958296,1.8317793 m 0,-6.9559293 c 2.82564034,0 5.12415004,2.2985096 5.12415004,5.12415 0,2.82673856 -2.2985097,5.1263464 -5.12415004,5.1263464 -2.82564036,0 -5.12415006,-2.29960784 -5.12415006,-5.1263464 0,-2.8256404 2.2985097,-5.12415 5.12415006,-5.12415"/>
            </g>
            <g
                    transform="matrix(0.07881215,0,0,-0.07881215,6.1747655,2.3674868)"
                    id="g1097">
                <path
                        inkscape:connector-curvature="0"
                        id="path1099"
                        style="fill:#faac1f;fill-opacity:1;fill-rule:nonzero;stroke:none;stroke-width:1.098189"
                        d="m 0.83710094,-0.21901013 c 1.00813756,0 1.82958296,-0.82144537 1.82958296,-1.83177927 0,-1.0092358 -0.8214454,-1.829583 -1.82958296,-1.829583 -1.00813753,0 -1.82958292,0.8203472 -1.82958292,1.829583 0,1.0103339 0.82144539,1.83177927 1.82958292,1.83177927 m 0,-6.95592927 c 2.82564036,0 5.12415006,2.2985096 5.12415006,5.12415 0,2.82673853 -2.2985097,5.1263464 -5.12415006,5.1263464 -2.82564034,0 -5.12415004,-2.29960787 -5.12415004,-5.1263464 0,-2.8256404 2.2985097,-5.12415 5.12415004,-5.12415"/>
            </g>
            <g
                    transform="matrix(0.07881215,0,0,-0.07881215,5.5028602,1.2541081)"
                    id="g1101">
                <path
                        inkscape:connector-curvature="0"
                        id="path1103"
                        style="fill:#faac1f;fill-opacity:1;fill-rule:nonzero;stroke:none;stroke-width:1.098189"
                        d="m -6.2293083e-8,1.1681056 c 1.008137562293083,0 1.829582962293083,-0.82034718 1.829582962293083,-1.8295829 0,-1.0092357 -0.8214454,-1.8295829 -1.829582962293083,-1.8295829 -1.008137537706917,0 -1.829582937706917,0.8203472 -1.829582937706917,1.8295829 0,1.00923572 0.8214454,1.8295829 1.829582937706917,1.8295829 m 0,-6.9537329 c 2.825640362293083,0 5.124150062293083,2.2985096 5.124150062293083,5.12415 0,2.8256404 -2.2985097,5.12415 -5.124150062293083,5.12415 -2.825640337706917,0 -5.124150037706917,-2.2985096 -5.124150037706917,-5.12415 0,-2.8256404 2.2985097,-5.12415 5.124150037706917,-5.12415"/>
            </g>
            <g
                    transform="matrix(0.07881215,0,0,-0.07881215,8.0224219,10.268019)"
                    id="g1105">
                <path
                        inkscape:connector-curvature="0"
                        id="path1107"
                        style="fill:#ffffff;fill-opacity:1;fill-rule:nonzero;stroke:none"
                        d="m 0,0 h -37.616 -4 -23.303 l -9.13,23.111 27.09,23.175 v 23.048 h -8.666 v 5.999 h 46.332 v -5.999 h -8.666 v -23.048 l 27.089,-23.175 z m -11.959,49.05 v 14.284 h 8.666 v 17.999 h -58.332 v -17.999 h 8.666 v -14.284 l -28.243,-24.161 12.202,-30.889 h 73.081 l 12.202,30.889 z"/>
            </g>
        </g>
    </g>
</svg>
