<?xml version="1.0" encoding="UTF-8"?>
<!-- Created with Inkscape (http://www.inkscape.org/) -->
<svg width="10in" height="10in" version="1.1" viewBox="0 0 254 254" xmlns="http://www.w3.org/2000/svg"
     xmlns:cc="http://creativecommons.org/ns#" xmlns:dc="http://purl.org/dc/elements/1.1/"
     xmlns:rdf="http://www.w3.org/1999/02/22-rdf-syntax-ns#">
 <defs>
  <filter id="filter37" x="-.025052" y="-.12652" width="1.0501" height="1.3021" color-interpolation-filters="sRGB">
   <feFlood flood-color="rgb(0,0,0)" flood-opacity=".49804" in="SourceGraphic" result="flood"/>
   <feGaussianBlur in="SourceGraphic" result="blur" stdDeviation="2.000000"/>
   <feOffset dx="0.000000" dy="2.000000" in="blur" result="offset"/>
   <feComposite in="flood" in2="offset" operator="in" result="comp1"/>
   <feComposite in="SourceGraphic" in2="comp1" result="comp2"/>
  </filter>
 </defs>
 <metadata>
  <rdf:RDF>
   <cc:Work rdf:about="">
    <dc:format>image/svg+xml</dc:format>
    <dc:type rdf:resource="http://purl.org/dc/dcmitype/StillImage"/>
   </cc:Work>
  </rdf:RDF>
 </metadata>
 <circle cx="127" cy="118.01" r="115.37" color="#000000" color-rendering="auto" fill="#343434" image-rendering="auto"
         shape-rendering="auto" solid-color="#000000" style="isolation:auto;mix-blend-mode:normal"/>
 <g transform="translate(11.085 229.64)">
  <g transform="matrix(17.516 0 0 17.516 20.203 -220.96)">
   <g transform="matrix(.078812 0 0 -.078812 4.1785 8.5637)">
    <path d="m0 0c-1.479 0-2.678-1.199-2.678-2.678 0-1.478 1.199-2.677 2.678-2.677s2.678 1.199 2.678 2.677c0 1.479-1.199 2.678-2.678 2.678"
          fill="#faac1f"/>
   </g>
   <g transform="matrix(.078812 0 0 -.078812 4.4368 9.2328)" fill="#67b319">
    <path d="m0 0c-0.969-0.549-2.086-0.866-3.277-0.866-3.683 0-6.679 2.996-6.679 6.678 0 3.681 2.996 6.677 6.679 6.677 3.682 0 6.678-2.996 6.678-6.677 0-1.037-0.244-2.014-0.667-2.89l5.146-5.146v-5.912h3.157v27.465c-2.709 0.853-4.679 3.386-4.679 6.371 0 3.684 2.996 6.68 6.679 6.68 3.682 0 6.678-2.996 6.678-6.68 0-2.985-1.97-5.518-4.678-6.371v-27.465h3.374v11.973l5.241 5.243c-0.484 0.924-0.762 1.973-0.762 3.087 0 3.684 2.996 6.68 6.679 6.68 3.682 0 6.678-2.996 6.678-6.68 0-3.682-2.996-6.678-6.678-6.678-1.114 0-2.163 0.279-3.088 0.763l-4.07-4.071v-10.317h19.684l6.57 16.631-26.128 22.353v25.389h-19v-25.389l-26.129-22.353 6.57-16.631h19.902v4.256z"
          fill="#faac1f"/>
   </g>
   <g transform="matrix(.078812 0 0 -.078812 6.7672 8.4849)">
    <path d="m0 0c1.479 0 2.678 1.199 2.678 2.678 0 1.48-1.199 2.679-2.678 2.679-1.48 0-2.679-1.199-2.679-2.679 0-1.479 1.199-2.678 2.679-2.678"
          fill="#faac1f"/>
   </g>
   <g transform="matrix(.078812 0 0 -.078812 5.4581 7.4177)">
    <path d="m0 0h0.155c1.443 0.042 2.601 1.216 2.601 2.67 0 1.48-1.199 2.68-2.678 2.68-1.48 0-2.679-1.2-2.679-2.68 0-1.454 1.158-2.628 2.601-2.67"
          fill="#faac1f"/>
   </g>
   <g transform="matrix(.078812 0 0 -.078812 4.831 2.8665)">
    <path d="m-0.8371-0.84074c1.0081 0 1.8296-0.82145 1.8296-1.8318 0-1.0092-0.82145-1.8296-1.8296-1.8296-1.0081 0-1.8296 0.82035-1.8296 1.8296 0 1.0103 0.82145 1.8318 1.8296 1.8318m0-6.9559c2.8256 0 5.1242 2.2985 5.1242 5.1242 0 2.8267-2.2985 5.1263-5.1242 5.1263-2.8256 0-5.1242-2.2996-5.1242-5.1263 0-2.8256 2.2985-5.1242 5.1242-5.1242"
          fill="#faac1f"/>
   </g>
   <g transform="matrix(.078812 0 0 -.078812 6.1748 2.3675)">
    <path d="m0.8371-0.21901c1.0081 0 1.8296-0.82145 1.8296-1.8318 0-1.0092-0.82145-1.8296-1.8296-1.8296-1.0081 0-1.8296 0.82035-1.8296 1.8296 0 1.0103 0.82145 1.8318 1.8296 1.8318m0-6.9559c2.8256 0 5.1242 2.2985 5.1242 5.1242 0 2.8267-2.2985 5.1263-5.1242 5.1263-2.8256 0-5.1242-2.2996-5.1242-5.1263 0-2.8256 2.2985-5.1242 5.1242-5.1242"
          fill="#faac1f"/>
   </g>
   <g transform="matrix(.078812 0 0 -.078812 5.5029 1.2541)">
    <path d="m-6.2293e-8 1.1681c1.0081 0 1.8296-0.82035 1.8296-1.8296 0-1.0092-0.82145-1.8296-1.8296-1.8296-1.0081 0-1.8296 0.82035-1.8296 1.8296 0 1.0092 0.82145 1.8296 1.8296 1.8296m0-6.9537c2.8256 0 5.1242 2.2985 5.1242 5.1242s-2.2985 5.1242-5.1242 5.1242c-2.8256 0-5.1242-2.2985-5.1242-5.1242s2.2985-5.1242 5.1242-5.1242"
          fill="#faac1f"/>
   </g>
   <g transform="matrix(.078812 0 0 -.078812 8.0224 10.268)">
    <path d="m0 0h-64.919l-9.13 23.111 27.09 23.175v23.048h-8.666v5.999h46.332v-5.999h-8.666v-23.048l27.089-23.175zm-11.959 49.05v14.284h8.666v17.999h-58.332v-17.999h8.666v-14.284l-28.243-24.161 12.202-30.889h73.081l12.202 30.889z"
          fill="#fff"/>
   </g>
  </g>
  <path d="m33.431-23.978a20.366 20.366 0 0 0-20.366 20.366 20.366 20.366 0 0 0 20.366 20.366 20.366 20.366 0 0 0 0.35347-0.02532v0.02222h164.26v-0.02222a20.366 20.366 0 0 0 0.35346 0.02532 20.366 20.366 0 0 0 20.366-20.366 20.366 20.366 0 0 0-20.366-20.366 20.366 20.366 0 0 0-0.35346 0.02532v-0.02222h-164.26v0.0057a20.366 20.366 0 0 0-0.35347-0.0088z"
        color="#000000" fill="#fff" filter="url(#filter37)" stroke="#fff" stroke-linecap="round" stroke-width=".70657"/>
  <path transform="matrix(3.7261 0 0 3.7261 -545.94 -3077.7)"
        d="m157.62 821.27q1.5573 0 2.3893 0.59734 0.84267 0.58667 0.84267 1.76 0 0.64001-0.23466 1.0987-0.224 0.44801-0.66134 0.73601-0.42667 0.27733-1.0453 0.40533-0.61866 0.128-1.3973 0.128h-0.82134v2.7413h-1.0347v-7.2854q0.43734-0.10667 0.97067-0.13867 0.544-0.0427 0.992-0.0427zm0.0853 0.90667q-0.66134 0-1.0133 0.032v2.9014h0.77867q0.53333 0 0.96-0.064 0.42667-0.0747 0.71467-0.23467 0.29867-0.17067 0.45867-0.45867t0.16-0.736q0-0.42667-0.17067-0.704-0.16-0.27734-0.448-0.43734-0.27733-0.17067-0.65067-0.23467-0.37333-0.064-0.78933-0.064zm8.0534 3.4667q0.17067 0.21333 0.42667 0.56534 0.26667 0.34133 0.544 0.768 0.27734 0.416 0.54401 0.87467 0.27733 0.45867 0.46933 0.88533h-1.1307q-0.21333-0.40533-0.46934-0.82133-0.24533-0.416-0.50133-0.78934-0.256-0.384-0.512-0.71467-0.24534-0.33066-0.448-0.576-0.13867 0.0107-0.288 0.0107-0.13867 0-0.288 0h-0.92801v2.8907h-1.0347v-7.2854q0.43734-0.10667 0.97067-0.13867 0.544-0.0427 0.99201-0.0427 1.5573 0 2.368 0.58667 0.82134 0.58667 0.82134 1.7493 0 0.736-0.39467 1.2587-0.384 0.52267-1.1413 0.77867zm-1.568-3.4667q-0.66134 0-1.0133 0.032v2.784h0.736q0.53334 0 0.96001-0.0533t0.71467-0.20267q0.29866-0.14933 0.45866-0.416 0.16001-0.27733 0.16001-0.72534 0-0.416-0.16001-0.69333-0.16-0.27734-0.43733-0.43734-0.26667-0.16-0.64-0.224-0.36267-0.064-0.77867-0.064zm4.6613 6.56v-7.392h4.512v0.88534h-3.4774v2.1973h3.0934v0.864h-3.0934v2.56h3.744v0.88533zm12.064-7.392q-0.40533 1.1733-0.77867 2.176-0.36266 0.992-0.71467 1.888-0.352 0.89601-0.704 1.7173-0.34133 0.81067-0.704 1.6107h-0.97067q-0.36267-0.8-0.71467-1.6107-0.34133-0.82133-0.704-1.7173-0.352-0.896-0.72534-1.888-0.37333-1.0027-0.768-2.176h1.1413q0.576 1.6853 1.1307 3.2427t1.1413 2.9227q0.58667-1.3547 1.1413-2.912 0.55467-1.568 1.12-3.2533zm1.024 0h1.0347v7.392h-1.0347zm2.8693 7.392v-7.392h4.512v0.88534h-3.4773v2.1973h3.0933v0.864h-3.0933v2.56h3.744v0.88533zm10.133-5.0134q-0.448 1.4293-0.90667 2.6454-0.45866 1.216-0.91733 2.368h-1.0347q-0.56534-1.632-1.0027-3.4453-0.42667-1.8133-0.8-3.9467h1.088q0.14933 0.832 0.30933 1.664 0.16 0.832 0.33067 1.6213 0.17067 0.77867 0.34134 1.4933 0.17066 0.71467 0.352 1.3227 0.42667-1.12 0.90667-2.4533 0.48-1.344 0.896-2.7733h0.896q0.416 1.4293 0.90667 2.7733 0.49067 1.3333 0.91734 2.4533 0.17067-0.59733 0.34133-1.312 0.17067-0.71467 0.33067-1.4933 0.17067-0.78934 0.33067-1.6213 0.16-0.84267 0.30933-1.6747h1.056q-0.38401 2.1333-0.82134 3.9467-0.42667 1.8133-0.98134 3.4453h-1.0347q-0.46933-1.152-0.91733-2.368-0.448-1.216-0.89601-2.6454z"
        fill="#343434" style="white-space:pre" aria-label="PREVIEW"/>
 </g>
</svg>
