<?xml version="1.0" encoding="UTF-8" standalone="no"?>
<!-- Created with Inkscape (http://www.inkscape.org/) -->

<svg
        width="10in"
        height="10in"
        version="1.1"
        viewBox="0 0 254 254"
        id="svg11"
        sodipodi:docname="preview_icon.svg"
        inkscape:version="1.4 (e7c3feb100, 2024-10-09)"
        xmlns:inkscape="http://www.inkscape.org/namespaces/inkscape"
        xmlns:sodipodi="http://sodipodi.sourceforge.net/DTD/sodipodi-0.dtd"
        xmlns="http://www.w3.org/2000/svg"
        xmlns:rdf="http://www.w3.org/1999/02/22-rdf-syntax-ns#"
        xmlns:cc="http://creativecommons.org/ns#"
        xmlns:dc="http://purl.org/dc/elements/1.1/">
  <sodipodi:namedview
          id="namedview11"
          pagecolor="#ffffff"
          bordercolor="#666666"
          borderopacity="1.0"
          inkscape:showpageshadow="2"
          inkscape:pageopacity="0.0"
          inkscape:pagecheckerboard="0"
          inkscape:deskcolor="#d1d1d1"
          inkscape:document-units="in"
          inkscape:zoom="0.80632701"
          inkscape:cx="377.01825"
          inkscape:cy="209.59238"
          inkscape:window-width="3840"
          inkscape:window-height="2123"
          inkscape:window-x="0"
          inkscape:window-y="0"
          inkscape:window-maximized="1"
          inkscape:current-layer="svg11"/>
  <defs
          id="defs2">
    <filter
            id="filter37"
            x="-0.042462697"
            y="-0.1265169"
            width="1.0849254"
            height="1.3021351"
            color-interpolation-filters="sRGB">
      <feFlood
              flood-color="rgb(0,0,0)"
              flood-opacity=".49804"
              in="SourceGraphic"
              result="flood"
              id="feFlood1"/>
      <feGaussianBlur
              in="SourceGraphic"
              result="blur"
              stdDeviation="2.000000"
              id="feGaussianBlur1"/>
      <feOffset
              dx="0.000000"
              dy="2.000000"
              in="blur"
              result="offset"
              id="feOffset1"/>
      <feComposite
              in="flood"
              in2="offset"
              operator="in"
              result="comp1"
              id="feComposite1"/>
      <feComposite
              in="SourceGraphic"
              in2="comp1"
              result="comp2"
              id="feComposite2"/>
    </filter>
  </defs>
  <metadata
          id="metadata2">
    <rdf:RDF>
      <cc:Work
              rdf:about="">
        <dc:format>image/svg+xml</dc:format>
        <dc:type
                rdf:resource="http://purl.org/dc/dcmitype/StillImage"/>
      </cc:Work>
    </rdf:RDF>
  </metadata>
  <circle
          cx="127"
          cy="118.01"
          r="115.37"
          color="#000000"
          color-rendering="auto"
          fill="#343434"
          image-rendering="auto"
          shape-rendering="auto"
          solid-color="#000000"
          style="isolation:auto;mix-blend-mode:normal"
          id="circle2"/>
  <g
          transform="translate(11.085,229.64)"
          id="g11">
    <g
            transform="matrix(17.516,0,0,17.516,20.203,-220.96)"
            id="g10">
      <g
              transform="matrix(0.078812,0,0,-0.078812,4.1785,8.5637)"
              id="g2">
        <path
                d="m 0,0 c -1.479,0 -2.678,-1.199 -2.678,-2.678 0,-1.478 1.199,-2.677 2.678,-2.677 1.479,0 2.678,1.199 2.678,2.677 0,1.479 -1.199,2.678 -2.678,2.678"
                fill="#faac1f"
                id="path2"/>
      </g>
      <g
              transform="matrix(0.078812,0,0,-0.078812,4.4368,9.2328)"
              fill="#67b319"
              id="g3">
        <path
                d="m 0,0 c -0.969,-0.549 -2.086,-0.866 -3.277,-0.866 -3.683,0 -6.679,2.996 -6.679,6.678 0,3.681 2.996,6.677 6.679,6.677 3.682,0 6.678,-2.996 6.678,-6.677 0,-1.037 -0.244,-2.014 -0.667,-2.89 l 5.146,-5.146 v -5.912 h 3.157 v 27.465 c -2.709,0.853 -4.679,3.386 -4.679,6.371 0,3.684 2.996,6.68 6.679,6.68 3.682,0 6.678,-2.996 6.678,-6.68 0,-2.985 -1.97,-5.518 -4.678,-6.371 v -27.465 h 3.374 v 11.973 l 5.241,5.243 c -0.484,0.924 -0.762,1.973 -0.762,3.087 0,3.684 2.996,6.68 6.679,6.68 3.682,0 6.678,-2.996 6.678,-6.68 0,-3.682 -2.996,-6.678 -6.678,-6.678 -1.114,0 -2.163,0.279 -3.088,0.763 l -4.07,-4.071 v -10.317 h 19.684 l 6.57,16.631 -26.128,22.353 v 25.389 h -19 v -25.389 l -26.129,-22.353 6.57,-16.631 h 19.902 v 4.256 z"
                fill="#faac1f"
                id="path3"/>
      </g>
      <g
              transform="matrix(0.078812,0,0,-0.078812,6.7672,8.4849)"
              id="g4">
        <path
                d="m 0,0 c 1.479,0 2.678,1.199 2.678,2.678 0,1.48 -1.199,2.679 -2.678,2.679 -1.48,0 -2.679,-1.199 -2.679,-2.679 0,-1.479 1.199,-2.678 2.679,-2.678"
                fill="#faac1f"
                id="path4"/>
      </g>
      <g
              transform="matrix(0.078812,0,0,-0.078812,5.4581,7.4177)"
              id="g5">
        <path
                d="m 0,0 h 0.155 c 1.443,0.042 2.601,1.216 2.601,2.67 0,1.48 -1.199,2.68 -2.678,2.68 -1.48,0 -2.679,-1.2 -2.679,-2.68 0,-1.454 1.158,-2.628 2.601,-2.67"
                fill="#faac1f"
                id="path5"/>
      </g>
      <g
              transform="matrix(0.078812,0,0,-0.078812,4.831,2.8665)"
              id="g6">
        <path
                d="m -0.8371,-0.84074 c 1.0081,0 1.8296,-0.82145 1.8296,-1.8318 0,-1.0092 -0.82145,-1.8296 -1.8296,-1.8296 -1.0081,0 -1.8296,0.82035 -1.8296,1.8296 0,1.0103 0.82145,1.8318 1.8296,1.8318 m 0,-6.9559 c 2.8256,0 5.1242,2.2985 5.1242,5.1242 0,2.8267 -2.2985,5.1263 -5.1242,5.1263 -2.8256,0 -5.1242,-2.2996 -5.1242,-5.1263 0,-2.8256 2.2985,-5.1242 5.1242,-5.1242"
                fill="#faac1f"
                id="path6"/>
      </g>
      <g
              transform="matrix(0.078812,0,0,-0.078812,6.1748,2.3675)"
              id="g7">
        <path
                d="m 0.8371,-0.21901 c 1.0081,0 1.8296,-0.82145 1.8296,-1.8318 0,-1.0092 -0.82145,-1.8296 -1.8296,-1.8296 -1.0081,0 -1.8296,0.82035 -1.8296,1.8296 0,1.0103 0.82145,1.8318 1.8296,1.8318 m 0,-6.9559 c 2.8256,0 5.1242,2.2985 5.1242,5.1242 0,2.8267 -2.2985,5.1263 -5.1242,5.1263 -2.8256,0 -5.1242,-2.2996 -5.1242,-5.1263 0,-2.8256 2.2985,-5.1242 5.1242,-5.1242"
                fill="#faac1f"
                id="path7"/>
      </g>
      <g
              transform="matrix(0.078812,0,0,-0.078812,5.5029,1.2541)"
              id="g8">
        <path
                d="m -6.2293e-8,1.1681 c 1.008099962293,0 1.829599962293,-0.82035 1.829599962293,-1.8296 0,-1.0092 -0.82145,-1.8296 -1.829599962293,-1.8296 -1.008100037707,0 -1.829600037707,0.82035 -1.829600037707,1.8296 0,1.0092 0.82145,1.8296 1.829600037707,1.8296 m 0,-6.9537 c 2.825599962293,0 5.124199962293,2.2985 5.124199962293,5.1242 0,2.8257 -2.2985,5.1242 -5.124199962293,5.1242 -2.825600037707,0 -5.124200037707001,-2.2985 -5.124200037707001,-5.1242 0,-2.8257 2.2985,-5.1242 5.124200037707001,-5.1242"
                fill="#faac1f"
                id="path8"/>
      </g>
      <g
              transform="matrix(0.078812,0,0,-0.078812,8.0224,10.268)"
              id="g9">
        <path
                d="m 0,0 h -64.919 l -9.13,23.111 27.09,23.175 v 23.048 h -8.666 v 5.999 h 46.332 v -5.999 h -8.666 v -23.048 l 27.089,-23.175 z m -11.959,49.05 v 14.284 h 8.666 v 17.999 h -58.332 v -17.999 h 8.666 v -14.284 l -28.243,-24.161 12.202,-30.889 h 73.081 l 12.202,30.889 z"
                fill="#ffffff"
                id="path9"/>
      </g>
    </g>
    <path
            d="m 75.600856,-23.978 c -11.143879,0.01552 -20.366,9.118169 -20.366,20.366 0,11.2478312 9.222121,20.381516 20.366,20.366 0.116874,-0.0076 0.235786,-0.01585 0.35347,-0.02532 v 0.02222 h 79.921354 v -0.02222 c 0.11774,0.0095 0.23557,0.0179 0.35346,0.02532 11.24783,0 20.366,-9.1181688 20.366,-20.366 0,-11.247831 -9.11817,-20.366 -20.366,-20.366 -0.11789,0.0074 -0.23572,0.01586 -0.35346,0.02532 v -0.02222 h -79.921354 v 0.0057 c -0.117778,-0.004 -0.236695,-0.007 -0.35347,-0.0088 z"
            color="#000000"
            fill="#ffffff"
            filter="url(#filter37)"
            stroke="#ffffff"
            stroke-linecap="round"
            stroke-width="0.70657"
            id="path10"
            sodipodi:nodetypes="csccccccscccccc"/>
    <text
            xml:space="preserve"
            style="font-size:39.4083px;line-height:92.3632px;font-family:Ubuntu;-inkscape-font-specification:Ubuntu;text-align:center;letter-spacing:0px;word-spacing:0px;text-anchor:middle;fill:none;stroke:#000000;stroke-width:1.64201px;stroke-linecap:butt;stroke-linejoin:miter;stroke-opacity:1"
            x="114.37808"
            y="9.5055571"
            id="text11"><tspan
         sodipodi:role="line"
         id="tspan11"
         style="fill:#343434;fill-opacity:1;stroke:none;stroke-width:1.64201px"
         x="114.37808"
         y="9.5055571">BETA</tspan></text>
  </g>
</svg>
