<?xml version="1.0" encoding="UTF-8"?>
<svg width="25" height="25" version="1.1" xmlns="http://www.w3.org/2000/svg" xmlns:cc="http://creativecommons.org/ns#"
     xmlns:dc="http://purl.org/dc/elements/1.1/" xmlns:rdf="http://www.w3.org/1999/02/22-rdf-syntax-ns#">
    <metadata>
        <rdf:RDF>
            <cc:Work rdf:about="">
                <dc:format>image/svg+xml</dc:format>
                <dc:type rdf:resource="http://purl.org/dc/dcmitype/StillImage"/>
            </cc:Work>
        </rdf:RDF>
    </metadata>
    <g display="none">
        <rect x="1.942" y="1.942" width="22.058" height="22.058" stroke="#000" stroke-width="2.8771"/>
    </g>
    <g transform="translate(0 -1027.4)" display="none">
        <path transform="translate(0 1027.4)" d="m10 2h5v13h6l-8.5 7.5-8.5-7.5h6z" fill="#fff"/>
        <path transform="translate(0 1027.4)" d="m10.5 2.5h4v13h5l-7 6.5-7-6.5h5z" fill="none" stroke="#fff"/>
    </g>
    <g display="none">
        <path d="m5 6h15l-7.5 13z" fill="#fff"/>
        <g transform="translate(-1,1)" stroke="#fff">
            <path d="m16 3 7 7-10.5 10.5h-3l-5.5-5.5z" fill="none"/>
            <path d="m16 3 7 7-7 7-7-7z" fill="#fff"/>
        </g>
        <g>
            <path d="m16 4 3 3v-3z" fill="#fffffb"/>
            <path d="m6 4v17h13v-12l-5-5zm3 11h1v2h2v1h-2v2h-1v-2h-2v-1h2z" fill="#fff"/>
            <path d="m3 20 2 2 9-9 4 4 5-5-10-10-5 5 4 4" fill="#fffffb"/>
            <path d="m12.5 5v15" fill="#fff" stroke="#fff" stroke-width="3"/>
            <path d="m5 12.5h15" fill="#fff" stroke="#fffff8" stroke-width="3"/>
        </g>
    </g>
    <g fill="none" stroke="#fffff6">
        <circle cx="12.5" cy="12.5" r="9.1304" stroke-width="2.7391"/>
        <path d="m6 6 13 13" stroke-width="3"/>
    </g>
    <g display="none">
        <g>
            <path d="m5 4v17h15v-15l-2-2zm3 1h9v5h-9zm-1 8h11v7h-11z"/>
            <rect x="14" y="6" width="2" height="3"/>
            <path d="m8 15h9v-1h-9z"/>
            <path d="m8 16v1h9v-1h-9"/>
            <path d="m8 18v1h9v-1z"/>
            <path d="m3 6v17h15v-15l-2-2zm3 1h9v5h-9zm-1 8h11v7h-11z" display="inline"/>
            <rect x="12" y="8" width="2" height="3" display="inline"/>
            <path d="m6 17h9v-1h-9z" display="inline"/>
            <path d="m6 18v1h9v-1h-9" display="inline"/>
            <path d="m6 20v1h9v-1z" display="inline"/>
        </g>
        <path d="m5.5 6v-1.5h12l2 2v14h-1.5" fill="none" stroke="#000"/>
        <path d="m7.5 4v-1.5h12l2 2v14h-1.5" display="inline" fill="none" stroke="#000"/>
        <path d="m4 7v14h14v-7.627l-1 1.1816v5.4453h-12v-12h9.6855l0.8457-1z" color="#000000" color-rendering="auto"
              display="inline" image-rendering="auto" shape-rendering="auto" solid-color="#000000"
              style="isolation:auto;mix-blend-mode:normal;text-decoration-color:#000000;text-decoration-line:none;text-decoration-style:solid;text-indent:0;text-transform:none;white-space:normal"/>
        <path d="m7 12 4 5 11-13" fill="none" stroke="#000" stroke-width="3"/>
        <g>
            <path d="m4 20v1h9v-16h8v-1h-9v16h-8"/>
            <path d="m8 14 1 1 3-3h1l3 3 1-1-4-4h-1z"/>
            <path d="m21 20v1h-9v-16h-8v-1h9v16h8"/>
            <path d="m17 11-1-1-3 3h-1l-3-3-1 1 4 4h1z"/>
            <path d="m4 4v1h17v-1z"/>
            <path d="m4 20v1h17v-1z"/>
            <path d="m12.5 6a6.5 6.5 0 0 0-0.5 0.021484v3.9785h2v5h-2v3.9746a6.5 6.5 0 0 0 0.5 0.02539 6.5 6.5 0 0 0 6.3164-5h3.1836v-3h-3.1836a6.5 6.5 0 0 0-6.3164-5zm-1.5 0.18359a6.5 6.5 0 0 0-4.8203 4.8164h-3.1797v3h3.1855a6.5 6.5 0 0 0 4.8145 4.8164v-4.8164h2v-3h-2z"/>
            <path d="m12.5 4a8.5 8.5 0 0 0-7.4902 4.4961l1.4961 1.4961a6.5 6.5 0 0 1 5.9941-3.9922 6.5 6.5 0 0 1 6.4082 5.4082l-1.4082-1.4082-1 1 3.5 3.5 3.5-3.5-1-1-1.5723 1.5723a8.5 8.5 0 0 0-8.4277-7.5723zm-7.5 6.5-3.5 3.5 1 1 1.5723-1.5723a8.5 8.5 0 0 0 8.4277 7.5723 8.5 8.5 0 0 0 7.459-4.4414l-1.4824-1.5078a6.5 6.5 0 0 1-5.9766 3.9492 6.5 6.5 0 0 1-6.4082-5.4082l1.4082 1.4082 1-1z"
                  display="inline"/>
        </g>
        <g>
            <path d="m12.5 4a8.5 8.5 0 0 0-7.4902 4.4961l1.4961 1.4961a6.5 6.5 0 0 1 5.9941-3.9922 6.5 6.5 0 0 1 6.4082 5.4082l-1.4082-1.4082-1 1 3.5 3.5 3.5-3.5-1-1-1.5723 1.5723a8.5 8.5 0 0 0-8.4277-7.5723zm-7.5 6.5-3.5 3.5 1 1 1.5723-1.5723a8.5 8.5 0 0 0 8.4277 7.5723 8.5 8.5 0 0 0 7.459-4.4414l-1.4824-1.5078a6.5 6.5 0 0 1-5.9766 3.9492 6.5 6.5 0 0 1-6.4082-5.4082l1.4082 1.4082 1-1z"
                  display="inline" fill="#fff"/>
            <g font-family="Ubuntu" letter-spacing="0px" word-spacing="0px">
                <text x="8.2420149" y="17.968395" fill="#ffffff" font-size="15.581px" stroke-width="1.4607px"
                      style="line-height:36.5171px" xml:space="preserve"><tspan x="8.2420149" y="17.968395" fill="#ffffff" stroke-width="1.4607px">1</tspan></text>
                <text x="1.2470721" y="36.037373" fill="#ffffff" font-size="46.887px" stroke-width="4.3957px"
                      style="line-height:109.892px" xml:space="preserve"><tspan x="1.2470721" y="36.037373" fill="#ffffff" stroke-width="4.3957px">*</tspan></text>
                <text x="1.3085067" y="19.320921" fill="#000000" font-size="20.003px" stroke-width="1.8752px"
                      style="line-height:46.8812px" xml:space="preserve"><tspan x="1.3085067" y="19.320921" fill="#ffffff" stroke-width="1.8752px">Aa</tspan></text>
            </g>
            <path d="m12.5 4a8.5 8.5 0 0 0-7.4902 4.4961l1.4961 1.4961a6.5 6.5 0 0 1 5.9941-3.9922 6.5 6.5 0 0 1 6.4082 5.4082l-1.4082-1.4082-1 1 3.5 3.5 3.5-3.5-1-1-1.5723 1.5723a8.5 8.5 0 0 0-8.4277-7.5723zm-7.5 6.5-3.5 3.5 1 1 1.5723-1.5723a8.5 8.5 0 0 0 8.4277 7.5723 8.5 8.5 0 0 0 7.459-4.4414l-1.4824-1.5078a6.5 6.5 0 0 1-5.9766 3.9492 6.5 6.5 0 0 1-6.4082-5.4082l1.4082 1.4082 1-1z"
                  display="inline" fill="#fff"/>
            <text x="7.9239817" y="17.11697" fill="#ffffff" font-family="Ubuntu" font-size="15.581px"
                  letter-spacing="0px" stroke-width="1.4607px" word-spacing="0px" style="line-height:36.5171px"
                  xml:space="preserve"><tspan x="7.9239817" y="17.11697" fill="#ffffff" stroke-width="1.4607px">∞</tspan></text>
            <path d="m12.5 4a8.5 8.5 0 0 0-5.8555 2.3516l2.8555 4.9492 1.1543-1.998 3.0098-5.2129a8.5 8.5 0 0 0-1.1641-0.089844zm2.3984 0.35156-2.8594 4.9512h8.3281a8.5 8.5 0 0 0-5.4688-4.9512zm-9.1035 2.9316a8.5 8.5 0 0 0-1.7949 5.2168 8.5 8.5 0 0 0 0.25 1.998h5.7109l-0.61914-1.0703-0.53516-0.92773zm9.2441 3.2187 0.98047 1.6973 0.17383 0.30078 3.0117 5.2168a8.5 8.5 0 0 0 1.7949-5.2168 8.5 8.5 0 0 0-0.25-1.998zm0.46094 3.1973-4.1621 7.2109a8.5 8.5 0 0 0 1.1621 0.08984 8.5 8.5 0 0 0 5.8574-2.3535zm-10.867 1.998a8.5 8.5 0 0 0 5.4707 4.9512l2.8574-4.9512h-2.3066z"
                  color="#000000" color-rendering="auto" display="inline" image-rendering="auto" shape-rendering="auto"
                  solid-color="#000000" style="isolation:auto;mix-blend-mode:normal"/>
            <path d="m12.123 2.2035a1.0001 1.0001 0 0 0-1.7056 0.7223v3.9278l-1.0717 1.0717-2.171-2.171a1.0001 1.0001 0 1 0-1.4142 1.4142l2.171 2.171-0.70711 0.70711a5.5 5.5 0 0 0-0.32869 0.3646l-3.9637 1e-6a1.0001 1.0001 0 1 0 4e-7 1.9998h2.8975a5.5 5.5 0 0 0 1.0468 5.0216l7.4025-7.4025 0.74025 0.74025-7.4067 7.4067a5.5 5.5 0 0 0 4.976 1.051l1e-6 2.8395a1.0001 1.0001 0 1 0 1.9998 0l1e-6 -3.8753a5.5 5.5 0 0 0 0.41432-0.36736l0.70711-0.70711 2.1213 2.1213a1.0001 1.0001 0 1 0 1.4142-1.4142l-2.1213-2.1213 1.1214-1.1214h3.8283a1.0001 1.0001 0 0 0 0.7002-1.7277 1.0001 1.0001 0 0 0-0.7002-0.27207l-2.4141 1e-6 -7.2423-7.2423v-2.4141a1.0001 1.0001 0 0 0-0.29417-0.7223z"
                  fill="#fff"/>
            <path d="m19.794 11.62-6.364-6.364c1.5621-1.5621 4.253-1.4038 6.0104 0.35355 1.7574 1.7574 1.9157 4.4483 0.35355 6.0104z"
                  fill="#fff"/>
        </g>
    </g>
</svg>
