<?xml version="1.0" encoding="UTF-8" standalone="no"?>
<svg
        width="25"
        height="25"
        id="svg2"
        version="1.1"
        inkscape:version="1.1.1 (3bf5ae0d25, 2021-09-20, custom)"
        sodipodi:docname="load.svg"
        inkscape:export-filename="/home/justin/workspace/Alchitry Labs/source/res/images/case-sensitive.png"
        inkscape:export-xdpi="96"
        inkscape:export-ydpi="96"
        xmlns:inkscape="http://www.inkscape.org/namespaces/inkscape"
        xmlns:sodipodi="http://sodipodi.sourceforge.net/DTD/sodipodi-0.dtd"
        xmlns="http://www.w3.org/2000/svg"
        xmlns:rdf="http://www.w3.org/1999/02/22-rdf-syntax-ns#"
        xmlns:cc="http://creativecommons.org/ns#"
        xmlns:dc="http://purl.org/dc/elements/1.1/">
    <defs
            id="defs4"/>
    <sodipodi:namedview
            id="base"
            pagecolor="#333333"
            bordercolor="#666666"
            borderopacity="1.0"
            inkscape:pageopacity="0"
            inkscape:pageshadow="2"
            inkscape:zoom="31.701498"
            inkscape:cx="8.9585672"
            inkscape:cy="15.330506"
            inkscape:document-units="px"
            inkscape:current-layer="layer17"
            showgrid="true"
            inkscape:window-width="3840"
            inkscape:window-height="2136"
            inkscape:window-x="0"
            inkscape:window-y="0"
            inkscape:window-maximized="1"
            inkscape:snap-object-midpoints="false"
            inkscape:snap-nodes="true"
            inkscape:object-nodes="true"
            showguides="true"
            inkscape:guide-bbox="true"
            inkscape:object-paths="true"
            inkscape:snap-smooth-nodes="true"
            inkscape:document-rotation="0"
            inkscape:snap-center="true"
            inkscape:pagecheckerboard="0">
        <inkscape:grid
                type="xygrid"
                id="grid2985"
                empspacing="5"
                visible="true"
                enabled="true"
                snapvisiblegridlinesonly="true"
                originy="0"
                originx="0"
                spacingx="1"
                spacingy="1"/>
    </sodipodi:namedview>
    <metadata
            id="metadata7">
        <rdf:RDF>
            <cc:Work
                    rdf:about="">
                <dc:format>image/svg+xml</dc:format>
                <dc:type
                        rdf:resource="http://purl.org/dc/dcmitype/StillImage"/>
            </cc:Work>
        </rdf:RDF>
    </metadata>
    <g
            inkscape:groupmode="layer"
            id="layer2"
            inkscape:label="Background"
            style="display:none"
            sodipodi:insensitive="true">
        <rect
                style="fill:#000000;fill-opacity:1;stroke:#000000;stroke-width:2.87712;stroke-miterlimit:4;stroke-dasharray:none;stroke-opacity:1"
                id="rect3012"
                width="22.057951"
                height="22.057951"
                x="1.942049"
                y="1.942049"/>
    </g>
    <g
            inkscape:label="Load"
            inkscape:groupmode="layer"
            id="layer1"
            transform="translate(0,-1027.3622)"
            style="display:none"
            sodipodi:insensitive="true">
        <path
                style="fill:#ffffff;fill-opacity:1;stroke:none"
                d="m 10,2 h 5 v 13 h 6 l -8.5,7.5 -8.5,-7.5 h 6 z"
                id="path2987"
                inkscape:connector-curvature="0"
                transform="translate(0,1027.3622)"
                sodipodi:nodetypes="cccccccc"/>
    </g>
    <g
            style="display:none"
            transform="translate(0,-1027.3622)"
            id="g3861"
            inkscape:groupmode="layer"
            inkscape:label="Load Temp"
            sodipodi:insensitive="true">
        <path
                sodipodi:nodetypes="cccccccc"
                transform="translate(0,1027.3622)"
                inkscape:connector-curvature="0"
                id="path3863"
                d="m 10.5,2.5 h 4 v 13 h 5 l -7,6.5 -7,-6.5 h 5 z"
                style="fill:none;stroke:#ffffff;stroke-opacity:1"/>
    </g>
    <g
            inkscape:groupmode="layer"
            id="layer5"
            inkscape:label="Arrow"
            style="display:none"
            sodipodi:insensitive="true">
        <path
                style="opacity:1;fill:#ffffff;fill-opacity:1;stroke:none;stroke-width:3;stroke-miterlimit:4;stroke-dasharray:none;stroke-dashoffset:0;stroke-opacity:1"
                d="m 5,6 h 15 l -7.5,13 z"
                id="path4215"
                inkscape:connector-curvature="0"
                sodipodi:nodetypes="cccc"/>
    </g>
    <g
            inkscape:groupmode="layer"
            id="layer7"
            inkscape:label="Erase"
            style="display:none">
        <g
                id="g3857"
                transform="translate(-1,1)">
            <path
                    sodipodi:nodetypes="cccccc"
                    inkscape:connector-curvature="0"
                    id="path3853"
                    d="m 16,3 7,7 -10.5,10.5 h -3 l -5.5,-5.5 z"
                    style="fill:none;stroke:#ffffff;stroke-width:1;stroke-miterlimit:4;stroke-dasharray:none;stroke-dashoffset:0;stroke-opacity:1"
                    inkscape:export-xdpi="90"
                    inkscape:export-ydpi="90"/>
            <path
                    inkscape:connector-curvature="0"
                    id="path3855"
                    d="m 16,3 7,7 -7,7 -7,-7 z"
                    style="fill:#ffffff;fill-opacity:1;stroke:#ffffff;stroke-width:1;stroke-miterlimit:4;stroke-dasharray:none;stroke-dashoffset:0;stroke-opacity:1"/>
        </g>
    </g>
    <g
            inkscape:groupmode="layer"
            id="layer3"
            inkscape:label="Open"
            style="display:none">
        <path
                style="fill:#fffffb;fill-opacity:1;stroke:none"
                d="m 16,4 3,3 v -3 z"
                id="path3785"
                inkscape:connector-curvature="0"
                sodipodi:nodetypes="cccc"/>
        <path
                style="fill:#ffffff;fill-opacity:1;stroke:none"
                d="m 6,4 v 17 h 13 v -12 l -5,-5 z m 3,11 h 1 v 2 h 2 v 1 h -2 v 2 h -1 v -2 h -2 v -1 h 2 z"
                id="path3861"
                inkscape:connector-curvature="0"
                sodipodi:nodetypes="ccccccccccccccccccc"/>
    </g>
    <g
            inkscape:groupmode="layer"
            id="layer4"
            inkscape:label="Build"
            style="display:none">
        <path
                style="fill:#fffffb;fill-opacity:1;stroke:none"
                d="m 3,20 2,2 9,-9 4,4 5,-5 -10,-10 -5,5 4,4"
                id="path3919"
                inkscape:connector-curvature="0"
                sodipodi:nodetypes="cccccccc"/>
    </g>
    <g
            inkscape:groupmode="layer"
            id="layer6"
            inkscape:label="Add"
            style="display:none">
        <path
                style="opacity:1;fill:#ffffff;fill-opacity:1;stroke:#ffffff;stroke-width:3;stroke-miterlimit:4;stroke-dasharray:none;stroke-dashoffset:0;stroke-opacity:1"
                d="m 12.5,5 v 15"
                id="path4159"
                inkscape:connector-curvature="0"
                inkscape:export-filename="/home/justin/workspace/git/mojo-ise/Mojo IDE/res/plus.png"
                inkscape:export-xdpi="90"
                inkscape:export-ydpi="90"
                sodipodi:nodetypes="cc"/>
        <path
                style="opacity:1;fill:#ffffff;fill-opacity:1;stroke:#fffff8;stroke-width:3;stroke-miterlimit:4;stroke-dasharray:none;stroke-dashoffset:0;stroke-opacity:1"
                d="m 5,12.5 h 15"
                id="path4159-2"
                inkscape:connector-curvature="0"
                inkscape:export-filename="/home/justin/workspace/git/mojo-ise/Mojo IDE/res/plus.png"
                inkscape:export-xdpi="90"
                inkscape:export-ydpi="90"
                sodipodi:nodetypes="cc"/>
    </g>
    <g
            inkscape:groupmode="layer"
            id="layer8"
            inkscape:label="Cancel"
            style="display:none">
        <circle
                style="opacity:1;fill:none;fill-opacity:1;stroke:#fffff6;stroke-width:2.73913;stroke-miterlimit:4;stroke-dasharray:none;stroke-dashoffset:0;stroke-opacity:1"
                id="path4225"
                cx="12.5"
                cy="12.5"
                r="9.130435"/>
        <path
                style="opacity:1;fill:none;fill-opacity:1;stroke:#fffff6;stroke-width:3;stroke-miterlimit:4;stroke-dasharray:none;stroke-dashoffset:0;stroke-opacity:1"
                d="m 6,6 13,13"
                id="path4227"
                inkscape:connector-curvature="0"/>
    </g>
    <g
            inkscape:groupmode="layer"
            id="layer9"
            inkscape:label="Save"
            style="display:none">
        <g
                id="g4743"
                style="fill:#fffffb;fill-opacity:1">
            <path
                    sodipodi:nodetypes="cccccccccccccccc"
                    inkscape:connector-curvature="0"
                    id="path4655"
                    d="m 5,4 v 17 h 15 v -15 l -2,-2 z m 3,1 h 9 v 5 h -9 z m -1,8 h 11 v 7 h -11 z"
                    style="opacity:1;fill:#fffffb;fill-opacity:1;stroke:none;stroke-width:1;stroke-miterlimit:4;stroke-dasharray:none;stroke-dashoffset:0;stroke-opacity:1"/>
            <rect
                    y="6"
                    x="14"
                    height="3"
                    width="2"
                    id="rect4660"
                    style="opacity:1;fill:#fffffb;fill-opacity:1;stroke:none;stroke-width:1;stroke-miterlimit:4;stroke-dasharray:none;stroke-dashoffset:0;stroke-opacity:1"/>
            <path
                    inkscape:connector-curvature="0"
                    id="path4665"
                    d="m 8,15 h 9 v -1 h -9 z"
                    style="opacity:1;fill:#fffffb;fill-opacity:1;stroke:none;stroke-width:1;stroke-miterlimit:4;stroke-dasharray:none;stroke-dashoffset:0;stroke-opacity:1"/>
            <path
                    inkscape:connector-curvature="0"
                    id="path4667"
                    d="m 8,16 v 1 h 9 v -1 h -9"
                    style="opacity:1;fill:#fffffb;fill-opacity:1;stroke:none;stroke-width:1;stroke-miterlimit:4;stroke-dasharray:none;stroke-dashoffset:0;stroke-opacity:1"/>
            <path
                    inkscape:connector-curvature="0"
                    id="path4669"
                    d="m 8,18 v 1 h 9 v -1 z"
                    style="opacity:1;fill:#fffffb;fill-opacity:1;stroke:none;stroke-width:1;stroke-miterlimit:4;stroke-dasharray:none;stroke-dashoffset:0;stroke-opacity:1"/>
        </g>
    </g>
    <g
            inkscape:groupmode="layer"
            id="layer10"
            inkscape:label="Save All"
            style="display:none">
        <g
                id="g4804"
                style="fill:#ffffff;fill-opacity:1">
            <path
                    sodipodi:nodetypes="cccccccccccccccc"
                    inkscape:connector-curvature="0"
                    id="path4655-4"
                    d="m 3,6 v 17 h 15 v -15 l -2,-2 z m 3,1 h 9 v 5 h -9 z m -1,8 h 11 v 7 h -11 z"
                    style="display:inline;opacity:1;fill:#ffffff;fill-opacity:1;stroke:none;stroke-width:1;stroke-miterlimit:4;stroke-dasharray:none;stroke-dashoffset:0;stroke-opacity:1"/>
            <rect
                    y="8"
                    x="12"
                    height="3"
                    width="2"
                    id="rect4660-9"
                    style="display:inline;opacity:1;fill:#ffffff;fill-opacity:1;stroke:none;stroke-width:1;stroke-miterlimit:4;stroke-dasharray:none;stroke-dashoffset:0;stroke-opacity:1"/>
            <path
                    inkscape:connector-curvature="0"
                    id="path4665-2"
                    d="m 6,17 h 9 v -1 h -9 z"
                    style="display:inline;opacity:1;fill:#ffffff;fill-opacity:1;stroke:none;stroke-width:1;stroke-miterlimit:4;stroke-dasharray:none;stroke-dashoffset:0;stroke-opacity:1"/>
            <path
                    inkscape:connector-curvature="0"
                    id="path4667-2"
                    d="m 6,18 v 1 h 9 v -1 h -9"
                    style="display:inline;opacity:1;fill:#ffffff;fill-opacity:1;stroke:none;stroke-width:1;stroke-miterlimit:4;stroke-dasharray:none;stroke-dashoffset:0;stroke-opacity:1"/>
            <path
                    inkscape:connector-curvature="0"
                    id="path4669-7"
                    d="m 6,20 v 1 h 9 v -1 z"
                    style="display:inline;opacity:1;fill:#ffffff;fill-opacity:1;stroke:none;stroke-width:1;stroke-miterlimit:4;stroke-dasharray:none;stroke-dashoffset:0;stroke-opacity:1"/>
        </g>
        <path
                style="opacity:1;fill:none;fill-opacity:1;stroke:#ffffef;stroke-width:1;stroke-miterlimit:4;stroke-dasharray:none;stroke-dashoffset:0;stroke-opacity:1"
                d="m 5.5,6 v -1.5 h 12 l 2,2 v 14 h -1.5"
                id="path4733"
                inkscape:connector-curvature="0"
                sodipodi:nodetypes="cccccc"/>
        <path
                sodipodi:nodetypes="cccccc"
                inkscape:connector-curvature="0"
                id="path4733-0-0"
                d="m 7.5,4 v -1.5 h 12 l 2,2 v 14 h -1.5"
                style="display:inline;opacity:1;fill:none;fill-opacity:1;stroke:#ffffef;stroke-width:1;stroke-miterlimit:4;stroke-dasharray:none;stroke-dashoffset:0;stroke-opacity:1"/>
    </g>
    <g
            inkscape:groupmode="layer"
            id="layer11"
            inkscape:label="Check"
            style="display:none">
        <path
                style="color:#000000;font-style:normal;font-variant:normal;font-weight:normal;font-stretch:normal;font-size:medium;line-height:normal;font-family:sans-serif;text-indent:0;text-align:start;text-decoration:none;text-decoration-line:none;text-decoration-style:solid;text-decoration-color:#000000;letter-spacing:normal;word-spacing:normal;text-transform:none;writing-mode:lr-tb;direction:ltr;baseline-shift:baseline;text-anchor:start;white-space:normal;clip-rule:nonzero;display:inline;overflow:visible;visibility:visible;opacity:1;isolation:auto;mix-blend-mode:normal;color-interpolation:sRGB;color-interpolation-filters:linearRGB;solid-color:#000000;solid-opacity:1;fill:#ffffff;fill-opacity:1;fill-rule:nonzero;stroke:none;stroke-width:1;stroke-linecap:butt;stroke-linejoin:miter;stroke-miterlimit:4;stroke-dasharray:none;stroke-dashoffset:0;stroke-opacity:1;color-rendering:auto;image-rendering:auto;shape-rendering:auto;text-rendering:auto;enable-background:accumulate"
                d="m 4,7 v 14 h 14 v -7.626953 l -1,1.181641 v 5.445312 h -12 v -12 h 9.685547 l 0.845703,-1 z"
                id="rect4814"
                inkscape:connector-curvature="0"/>
        <path
                style="opacity:1;fill:none;fill-opacity:1;stroke:#ffffff;stroke-width:3;stroke-linejoin:miter;stroke-miterlimit:4;stroke-dasharray:none;stroke-dashoffset:0;stroke-opacity:1"
                d="m 7,12 4,5 11,-13"
                id="path4898"
                inkscape:connector-curvature="0"
                sodipodi:nodetypes="ccc"/>
    </g>
    <g
            inkscape:groupmode="layer"
            id="layer12"
            inkscape:label="Rising Trigger"
            style="display:none">
        <path
                style="opacity:1;fill:#ffffff;fill-opacity:1;stroke:none;stroke-width:1;stroke-linecap:butt;stroke-linejoin:miter;stroke-miterlimit:4;stroke-dasharray:none;stroke-dashoffset:0;stroke-opacity:1"
                d="m 4,20 v 1 h 9 v -16 h 8 v -1 h -9 v 16 h -8"
                id="path5375"
                inkscape:connector-curvature="0"/>
        <path
                style="opacity:1;fill:#ffffff;fill-opacity:1;stroke:none;stroke-width:1;stroke-linecap:butt;stroke-linejoin:miter;stroke-miterlimit:4;stroke-dasharray:none;stroke-dashoffset:0;stroke-opacity:1"
                d="m 8,14 1,1 3,-3 h 1 l 3,3 1,-1 -4,-4 h -1 z"
                id="path5377"
                inkscape:connector-curvature="0"/>
    </g>
    <g
            inkscape:label="Falling Trigger"
            id="g5379"
            inkscape:groupmode="layer"
            style="display:none">
        <path
                inkscape:connector-curvature="0"
                id="path5381"
                d="m 21,20 v 1 h -9 v -16 h -8 v -1 h 9 v 16 h 8"
                style="opacity:1;fill:#ffffff;fill-opacity:1;stroke:none;stroke-width:1;stroke-linecap:butt;stroke-linejoin:miter;stroke-miterlimit:4;stroke-dasharray:none;stroke-dashoffset:0;stroke-opacity:1"/>
        <path
                inkscape:connector-curvature="0"
                id="path5383"
                d="m 17,11 -1,-1 -3,3 h -1 l -3,-3 -1,1 4,4 h 1 z"
                style="opacity:1;fill:#ffffff;fill-opacity:1;stroke:none;stroke-width:1;stroke-linecap:butt;stroke-linejoin:miter;stroke-miterlimit:4;stroke-dasharray:none;stroke-dashoffset:0;stroke-opacity:1"/>
    </g>
    <g
            inkscape:groupmode="layer"
            id="layer13"
            inkscape:label="High Trigger"
            style="display:none">
        <path
                style="opacity:1;fill:#ffffff;fill-opacity:1;stroke:none;stroke-width:1;stroke-linecap:butt;stroke-linejoin:miter;stroke-miterlimit:4;stroke-dasharray:none;stroke-dashoffset:0;stroke-opacity:1"
                d="m 4,4 v 1 h 17 v -1 z"
                id="path5386"
                inkscape:connector-curvature="0"/>
    </g>
    <g
            inkscape:label="Low Trigger"
            id="g5388"
            inkscape:groupmode="layer"
            style="display:none">
        <path
                inkscape:connector-curvature="0"
                id="path5390"
                d="m 4,20 v 1 h 17 v -1 z"
                style="opacity:1;fill:#ffffff;fill-opacity:1;stroke:none;stroke-width:1;stroke-linecap:butt;stroke-linejoin:miter;stroke-miterlimit:4;stroke-dasharray:none;stroke-dashoffset:0;stroke-opacity:1"/>
    </g>
    <g
            inkscape:groupmode="layer"
            id="layer14"
            inkscape:label="Connect"
            style="display:none">
        <path
                style="opacity:1;fill:#ffffe7;fill-opacity:1;stroke:none;stroke-width:1;stroke-linecap:butt;stroke-linejoin:miter;stroke-miterlimit:4;stroke-dasharray:none;stroke-dashoffset:0;stroke-opacity:1"
                d="m 12.5,6 a 6.5,6.5 0 0 0 -0.5,0.021484 v 3.9785156 h 1 1 v 5.0000004 h -2 v 3.974609 a 6.5,6.5 0 0 0 0.5,0.02539 6.5,6.5 0 0 0 6.316406,-5 h 3.183594 v -3 h -3 -0.183594 a 6.5,6.5 0 0 0 -6.316406,-5.0000004 z m -1.5,0.1835938 a 6.5,6.5 0 0 0 -4.8203125,4.8164062 h -2.1796875 -1 v 3 h 3.1855469 a 6.5,6.5 0 0 0 4.8144531,4.816406 v -4.816406 h 2 v -3 h -2 z"
                id="path4194"
                inkscape:connector-curvature="0"/>
    </g>
    <g
            inkscape:groupmode="layer"
            id="layer15"
            inkscape:label="Sync"
            style="display:none"
            sodipodi:insensitive="true">
        <path
                style="display:inline;opacity:1;fill:#ffffff;fill-opacity:1;stroke:none;stroke-width:1;stroke-linecap:butt;stroke-linejoin:miter;stroke-miterlimit:4;stroke-dasharray:none;stroke-dashoffset:0;stroke-opacity:1"
                d="m 12.5,4 a 8.5,8.5 0 0 0 -7.4902344,4.4960938 l 1.4960938,1.4960937 a 6.5,6.5 0 0 1 5.9941406,-3.9921875 6.5,6.5 0 0 1 6.408203,5.408203 l -1.408203,-1.408203 -1,1 3.5,3.5 3.5,-3.5 -1,-1 -1.572266,1.572266 a 8.5,8.5 0 0 0 -8.427734,-7.572266 z m -7.5,6.5 -3.5,3.5 1,1 1.5722656,-1.572266 a 8.5,8.5 0 0 0 8.4277344,7.572266 8.5,8.5 0 0 0 7.458984,-4.441406 l -1.482422,-1.507813 a 6.5,6.5 0 0 1 -5.976562,3.949219 6.5,6.5 0 0 1 -6.4082031,-5.408203 l 1.4082031,1.408203 1,-1 z"
                id="path5383-5"
                inkscape:connector-curvature="0"/>
    </g>
    <g
            inkscape:groupmode="layer"
            id="g893"
            inkscape:label="Replace 1"
            style="display:none"
            sodipodi:insensitive="true">
        <path
                style="display:inline;opacity:1;fill:#ffffff;fill-opacity:1;stroke:none;stroke-width:1;stroke-linecap:butt;stroke-linejoin:miter;stroke-miterlimit:4;stroke-dasharray:none;stroke-dashoffset:0;stroke-opacity:1"
                d="m 12.5,4 a 8.5,8.5 0 0 0 -7.4902344,4.4960938 l 1.4960938,1.4960937 a 6.5,6.5 0 0 1 5.9941406,-3.9921875 6.5,6.5 0 0 1 6.408203,5.408203 l -1.408203,-1.408203 -1,1 3.5,3.5 3.5,-3.5 -1,-1 -1.572266,1.572266 a 8.5,8.5 0 0 0 -8.427734,-7.572266 z m -7.5,6.5 -3.5,3.5 1,1 1.5722656,-1.572266 a 8.5,8.5 0 0 0 8.4277344,7.572266 8.5,8.5 0 0 0 7.458984,-4.441406 l -1.482422,-1.507813 a 6.5,6.5 0 0 1 -5.976562,3.949219 6.5,6.5 0 0 1 -6.4082031,-5.408203 l 1.4082031,1.408203 1,-1 z"
                id="path891"
                inkscape:connector-curvature="0"/>
        <text
                xml:space="preserve"
                style="font-style:normal;font-variant:normal;font-weight:normal;font-stretch:normal;font-size:15.5807px;line-height:36.5171px;font-family:Ubuntu;-inkscape-font-specification:Ubuntu;letter-spacing:0px;word-spacing:0px;fill:#ffffff;fill-opacity:1;stroke:none;stroke-width:1.46068px;stroke-linecap:butt;stroke-linejoin:miter;stroke-opacity:1"
                x="8.2420149"
                y="17.968395"
                id="text897"><tspan
         sodipodi:role="line"
         id="tspan895"
         x="8.2420149"
         y="17.968395"
         style="fill:#ffffff;stroke-width:1.46068px">1</tspan></text>
    </g>
    <g
            inkscape:groupmode="layer"
            id="layer18"
            inkscape:label="Regex"
            sodipodi:insensitive="true"
            style="display:none">
        <text
                xml:space="preserve"
                style="font-style:normal;font-variant:normal;font-weight:normal;font-stretch:normal;font-size:46.8872px;line-height:109.892px;font-family:Ubuntu;-inkscape-font-specification:Ubuntu;letter-spacing:0px;word-spacing:0px;fill:#ffffff;fill-opacity:1;stroke:none;stroke-width:4.39566px;stroke-linecap:butt;stroke-linejoin:miter;stroke-opacity:1"
                x="1.2470721"
                y="36.037373"
                id="text910"><tspan
         sodipodi:role="line"
         id="tspan908"
         x="1.2470721"
         y="36.037373"
         style="fill:#ffffff;stroke-width:4.39566px">*</tspan></text>
    </g>
    <g
            inkscape:groupmode="layer"
            id="layer19"
            inkscape:label="case-sensitive"
            style="display:none">
        <text
                xml:space="preserve"
                style="font-style:normal;font-variant:normal;font-weight:normal;font-stretch:normal;font-size:20.0027px;line-height:46.8812px;font-family:Ubuntu;-inkscape-font-specification:Ubuntu;letter-spacing:0px;word-spacing:0px;fill:#000000;fill-opacity:1;stroke:none;stroke-width:1.87525px;stroke-linecap:butt;stroke-linejoin:miter;stroke-opacity:1"
                x="1.3085067"
                y="19.320921"
                id="text915"><tspan
         sodipodi:role="line"
         id="tspan913"
         x="1.3085067"
         y="19.320921"
         style="fill:#ffffff;stroke-width:1.87525px">Aa</tspan></text>
    </g>
    <g
            inkscape:groupmode="layer"
            id="g905"
            inkscape:label="Replace All"
            style="display:none"
            sodipodi:insensitive="true">
        <path
                style="display:inline;opacity:1;fill:#ffffff;fill-opacity:1;stroke:none;stroke-width:1;stroke-linecap:butt;stroke-linejoin:miter;stroke-miterlimit:4;stroke-dasharray:none;stroke-dashoffset:0;stroke-opacity:1"
                d="m 12.5,4 a 8.5,8.5 0 0 0 -7.4902344,4.4960938 l 1.4960938,1.4960937 a 6.5,6.5 0 0 1 5.9941406,-3.9921875 6.5,6.5 0 0 1 6.408203,5.408203 l -1.408203,-1.408203 -1,1 3.5,3.5 3.5,-3.5 -1,-1 -1.572266,1.572266 a 8.5,8.5 0 0 0 -8.427734,-7.572266 z m -7.5,6.5 -3.5,3.5 1,1 1.5722656,-1.572266 a 8.5,8.5 0 0 0 8.4277344,7.572266 8.5,8.5 0 0 0 7.458984,-4.441406 l -1.482422,-1.507813 a 6.5,6.5 0 0 1 -5.976562,3.949219 6.5,6.5 0 0 1 -6.4082031,-5.408203 l 1.4082031,1.408203 1,-1 z"
                id="path899"
                inkscape:connector-curvature="0"/>
        <text
                xml:space="preserve"
                style="font-style:normal;font-variant:normal;font-weight:normal;font-stretch:normal;font-size:15.5807px;line-height:36.5171px;font-family:Ubuntu;-inkscape-font-specification:Ubuntu;letter-spacing:0px;word-spacing:0px;fill:#ffffff;fill-opacity:1;stroke:none;stroke-width:1.46068px;stroke-linecap:butt;stroke-linejoin:miter;stroke-opacity:1"
                x="7.9239817"
                y="17.11697"
                id="text903"><tspan
         sodipodi:role="line"
         id="tspan901"
         x="7.9239817"
         y="17.11697"
         style="fill:#ffffff;stroke-width:1.46068px">∞</tspan></text>
    </g>
    <g
            inkscape:groupmode="layer"
            id="layer16"
            inkscape:label="Capture"
            style="display:none">
        <path
                style="color:#000000;clip-rule:nonzero;display:inline;overflow:visible;visibility:visible;opacity:1;isolation:auto;mix-blend-mode:normal;color-interpolation:sRGB;color-interpolation-filters:linearRGB;solid-color:#000000;solid-opacity:1;fill:#fffbff;fill-opacity:1;fill-rule:nonzero;stroke:none;stroke-width:2;stroke-linecap:butt;stroke-linejoin:miter;stroke-miterlimit:4;stroke-dasharray:none;stroke-dashoffset:0;stroke-opacity:1;color-rendering:auto;image-rendering:auto;shape-rendering:auto;text-rendering:auto;enable-background:accumulate"
                d="m 12.5,4 a 8.5,8.5 0 0 0 -5.8554688,2.3515625 l 2.8554688,4.9492185 1.154297,-1.9980466 3.009765,-5.2128906 a 8.5,8.5 0 0 0 -1.164062,-0.089844 z m 2.398438,0.3515625 -2.859376,4.9511719 h 2.306641 6.021485 a 8.5,8.5 0 0 0 -5.46875,-4.9511719 z m -9.1035161,2.9316406 a 8.5,8.5 0 0 0 -1.7949219,5.2167969 8.5,8.5 0 0 0 0.25,1.998047 h 5.7109375 l -0.6191406,-1.070313 -0.5351563,-0.927734 z m 9.2441401,3.2187499 0.980469,1.697266 0.173828,0.300781 3.011719,5.216797 a 8.5,8.5 0 0 0 1.794922,-5.216797 8.5,8.5 0 0 0 -0.25,-1.998047 z m 0.460938,3.197266 -4.162109,7.210937 a 8.5,8.5 0 0 0 1.162109,0.08984 8.5,8.5 0 0 0 5.857422,-2.353516 z m -10.8671875,1.998047 a 8.5,8.5 0 0 0 5.4707035,4.951172 l 2.857422,-4.951172 h -2.306641 z"
                id="path4583"
                inkscape:connector-curvature="0"/>
    </g>
    <g
            inkscape:groupmode="layer"
            id="layer17"
            inkscape:label="Debug"
            style="display:inline">
        <path
                style="fill:#ffffff;fill-opacity:1"
                d="m 12.123292,2.2034943 a 1.0001,1.0001 0 0 0 -1.705619,0.7222984 v 3.9277573 l -1.0717095,1.0717087 -2.1710389,-2.1710388 a 1.0001,1.0001 0 1 0 -1.4142135,1.4142136 l 2.1710387,2.1710388 -0.7071067,0.7071067 a 5.5,5.5 0 0 0 -0.328694,0.364601 l -3.9636654,10e-7 a 1.0001,1.0001 0 1 0 4e-7,1.999786 h 2.8974805 a 5.5,5.5 0 0 0 1.046849,5.021562 l 7.4025244,-7.402524 0.740253,0.740253 -7.4066672,7.406668 a 5.5,5.5 0 0 0 4.9759872,1.050992 l 10e-7,2.839476 a 1.0001,1.0001 0 1 0 1.999785,0 l 10e-7,-3.875277 a 5.5,5.5 0 0 0 0.41432,-0.367364 l 0.707107,-0.707107 2.12132,2.121321 a 1.0001,1.0001 0 1 0 1.414214,-1.414214 l -2.121321,-2.12132 1.121428,-1.121428 h 3.82832 a 1.0001,1.0001 0 0 0 0.700202,-1.727715 1.0001,1.0001 0 0 0 -0.700202,-0.272071 l -2.414106,10e-7 -7.242321,-7.2423205 v -2.4141066 a 1.0001,1.0001 0 0 0 -0.294167,-0.7222986 z"
                id="rect4303"
                inkscape:connector-curvature="0"/>
        <path
                style="fill:#ffffff;fill-opacity:1"
                d="m 19.793881,11.61965 -6.363961,-6.3639645 c 1.562097,-1.5620972 4.253048,-1.4038057 6.010407,0.3535534 1.757359,1.757359 1.915651,4.4483141 0.353554,6.0104111 z"
                id="path4310"
                inkscape:connector-curvature="0"
                sodipodi:nodetypes="ccsc"/>
    </g>
</svg>
