<?xml version="1.0" encoding="UTF-8" standalone="no"?>
<svg
        viewBox="0 0 24 24"
        version="1.1"
        id="svg1"
        sodipodi:docname="regex.svg"
        inkscape:version="1.4.3 (0d15f75042, 2025-12-25)"
        xmlns:inkscape="http://www.inkscape.org/namespaces/inkscape"
        xmlns:sodipodi="http://sodipodi.sourceforge.net/DTD/sodipodi-0.dtd"
        xmlns="http://www.w3.org/2000/svg"
>
  <defs
          id="defs1"/>
  <sodipodi:namedview
          id="namedview1"
          pagecolor="#ffffff"
          bordercolor="#666666"
          borderopacity="1.0"
          inkscape:showpageshadow="2"
          inkscape:pageopacity="0.0"
          inkscape:pagecheckerboard="0"
          inkscape:deskcolor="#d1d1d1"
          inkscape:zoom="79.666667"
          inkscape:cx="11.993724"
          inkscape:cy="12"
          inkscape:window-width="3840"
          inkscape:window-height="2123"
          inkscape:window-x="0"
          inkscape:window-y="0"
          inkscape:window-maximized="1"
          inkscape:current-layer="svg1"/>
  <path
          d="m 15,15.92 c -0.33,0.05 -0.66,0.08 -1,0.08 -0.34,0 -0.67,-0.03 -1,-0.08 v -3.51 l -2.5,2.48 c -0.5,-0.39 -1,-0.89 -1.39,-1.39 l 2.48,-2.5 h -3.51 c -0.05,-0.33 -0.08,-0.66 -0.08,-1 0,-0.34 0.03,-0.67 0.08,-1 h 3.51 l -2.48,-2.5 c 0.19,-0.25 0.39,-0.5 0.65,-0.74 v 0 c 0.24,-0.26 0.49,-0.46 0.74,-0.65 l 2.5,2.48 v -3.51 c 0.33,-0.05 0.66,-0.08 1,-0.08 0.34,0 0.67,0.03 1,0.08 v 3.51 l 2.5,-2.48 c 0.5,0.39 1,0.89 1.39,1.39 l -2.48,2.5 h 3.51 c 0.05,0.33 0.08,0.66 0.08,1 0,0.34 -0.03,0.67 -0.08,1 h -3.51 l 2.48,2.5 c -0.19,0.25 -0.39,0.5 -0.65,0.74 v 0 c -0.24,0.26 -0.49,0.46 -0.74,0.65 l -2.5,-2.48 v 3.51 0 0 m -11,2.08 a 2,2 0 0 1 2,-2 2,2 0 0 1 2,2 2,2 0 0 1 -2,2 2,2 0 0 1 -2,-2 z"
          id="path1"/>
</svg>
